<mxfile host="app.diagrams.net" modified="2020-10-07T02:04:15.230Z" agent="5.0 (Macintosh; Intel Mac OS X 10_15_6) AppleWebKit/537.36 (KHTML, like Gecko) Chrome/85.0.4183.121 Safari/537.36" etag="7yLup4vMT5uuDvgUO-zz" version="13.7.7" type="github" pages="2">
  <diagram id="VjMVDsoSgXj8yqhFqqJt" name="Page-1">
    <mxGraphModel dx="1186" dy="621" grid="1" gridSize="10" guides="1" tooltips="1" connect="1" arrows="1" fold="1" page="1" pageScale="1" pageWidth="827" pageHeight="1169" math="0" shadow="0">
      <root>
        <mxCell id="0" />
        <mxCell id="1" parent="0" />
        <mxCell id="AjC-iOu3b22q-G6lVEZR-1" style="edgeStyle=orthogonalEdgeStyle;rounded=0;orthogonalLoop=1;jettySize=auto;html=1;exitX=1;exitY=0.5;exitDx=0;exitDy=0;" parent="1" source="IADl_TCVAS1DWhMh2N7e-1" target="IADl_TCVAS1DWhMh2N7e-3" edge="1">
          <mxGeometry relative="1" as="geometry" />
        </mxCell>
        <mxCell id="IADl_TCVAS1DWhMh2N7e-1" value="测试" style="rounded=1;whiteSpace=wrap;html=1;fillColor=#ffe6cc;strokeColor=#d79b00;" parent="1" vertex="1">
          <mxGeometry x="80" y="140" width="100" height="40" as="geometry" />
        </mxCell>
        <mxCell id="AjC-iOu3b22q-G6lVEZR-4" style="edgeStyle=orthogonalEdgeStyle;rounded=0;orthogonalLoop=1;jettySize=auto;html=1;exitX=1;exitY=0.75;exitDx=0;exitDy=0;" parent="1" source="IADl_TCVAS1DWhMh2N7e-3" target="AjC-iOu3b22q-G6lVEZR-2" edge="1">
          <mxGeometry relative="1" as="geometry" />
        </mxCell>
        <mxCell id="IADl_TCVAS1DWhMh2N7e-3" value="招标" style="rounded=1;whiteSpace=wrap;html=1;fillColor=#ffe6cc;strokeColor=#d79b00;" parent="1" vertex="1">
          <mxGeometry x="220" y="140" width="100" height="40" as="geometry" />
        </mxCell>
        <mxCell id="AjC-iOu3b22q-G6lVEZR-5" style="edgeStyle=orthogonalEdgeStyle;rounded=0;orthogonalLoop=1;jettySize=auto;html=1;exitX=0.55;exitY=0.95;exitDx=0;exitDy=0;exitPerimeter=0;" parent="1" source="AjC-iOu3b22q-G6lVEZR-2" target="AjC-iOu3b22q-G6lVEZR-3" edge="1">
          <mxGeometry relative="1" as="geometry" />
        </mxCell>
        <mxCell id="AjC-iOu3b22q-G6lVEZR-2" value="云" style="ellipse;shape=cloud;whiteSpace=wrap;html=1;fillColor=#f8cecc;strokeColor=#b85450;" parent="1" vertex="1">
          <mxGeometry x="340" y="130" width="120" height="80" as="geometry" />
        </mxCell>
        <mxCell id="AjC-iOu3b22q-G6lVEZR-3" value="" style="shape=cylinder3;whiteSpace=wrap;html=1;boundedLbl=1;backgroundOutline=1;size=15;fillColor=#d5e8d4;strokeColor=#82b366;" parent="1" vertex="1">
          <mxGeometry x="370" y="250" width="60" height="80" as="geometry" />
        </mxCell>
        <mxCell id="QOwDhG8plz0dCKIEEesO-1" value="Label" style="label;whiteSpace=wrap;html=1;image=img/clipart/Gear_128x128.png;fillColor=#ffe6cc;strokeColor=#d79b00;" parent="1" vertex="1">
          <mxGeometry x="80" y="260" width="140" height="60" as="geometry" />
        </mxCell>
      </root>
    </mxGraphModel>
  </diagram>
  <diagram id="acK6S9Unc-VcYA9nT0ft" name="Page-2">
    <mxGraphModel dx="1186" dy="621" grid="1" gridSize="10" guides="1" tooltips="1" connect="1" arrows="1" fold="1" page="1" pageScale="1" pageWidth="827" pageHeight="1169" math="0" shadow="0">
      <root>
        <mxCell id="UP3523RMjc5BJlsPxFGX-0" />
        <mxCell id="UP3523RMjc5BJlsPxFGX-1" parent="UP3523RMjc5BJlsPxFGX-0" />
      </root>
    </mxGraphModel>
  </diagram>
</mxfile>
